<svg width="139" height="24" viewBox="0 0 139 24" fill="none" xmlns="http://www.w3.org/2000/svg">
<path d="M6.83871 5.65161C10.529 5.65161 13.5226 8.56774 13.5226 12.3871C13.5226 16.2065 10.529 19.1226 6.83871 19.1226C4.33548 19.1226 2.34839 17.8323 1.29032 15.8452V24H0V5.93548H1.29032V8.92903C2.34839 6.94193 4.33548 5.65161 6.83871 5.65161ZM6.76129 17.8839C9.83226 17.8839 12.2323 15.4581 12.2323 12.3871C12.2323 9.31613 9.83226 6.89032 6.76129 6.89032C3.69032 6.89032 1.29032 9.31613 1.29032 12.3871C1.29032 15.4581 3.69032 17.8839 6.76129 17.8839Z" fill="#151618"/>
<path d="M16.6331 18.8387V5.93548H17.9234V18.8387H16.6331Z" fill="#151618"/>
<path d="M32.3776 18.8387H30.8034L26.4421 13.2129L22.0808 18.8387H20.5067L25.6679 12.2065L20.8163 5.93548H22.3905L26.4421 11.1742L30.5196 5.93548H32.0679L27.2421 12.1806L32.3776 18.8387Z" fill="#151618"/>
<path d="M39.9798 5.65161C43.9024 5.65161 46.354 8.90323 46.354 12.4387C46.354 12.6452 46.3282 12.8516 46.3282 13.0581H34.6379C34.9476 15.9742 37.1669 17.8839 40.1089 17.8839C42.225 17.8839 43.825 16.9032 44.5734 15.5355L45.7089 16.2065C44.6508 17.9613 42.6379 19.1226 40.0831 19.1226C36.1089 19.1226 33.296 16.2839 33.296 12.3871C33.296 8.59355 36.0314 5.65161 39.9798 5.65161ZM39.9798 6.89032C37.0379 6.89032 34.896 8.92903 34.6379 11.7935H45.0121C44.7282 8.64516 42.5089 6.89032 39.9798 6.89032Z" fill="#151618"/>
<path d="M49.37 18.8387V0H50.6603V18.8387H49.37Z" fill="#151618"/>
<path d="M61.9871 5.57419C65.3677 5.57419 68.1548 8.54194 68.1548 12.3871C68.1548 16.2323 65.3677 19.2 61.9871 19.2C60.2581 19.2 58.9935 18.6065 58.1419 17.6258V24H54.271V5.93548H58.1419V7.14839C58.9935 6.16774 60.2581 5.57419 61.9871 5.57419ZM61.2129 15.5355C62.9935 15.5355 64.2839 14.3226 64.2839 12.3871C64.2839 10.4516 62.9935 9.23871 61.2129 9.23871C59.4323 9.23871 58.1419 10.4516 58.1419 12.3871C58.1419 14.3226 59.4323 15.5355 61.2129 15.5355Z" fill="#151618"/>
<path d="M73.8077 13.9355C74.298 15.2774 75.4851 15.7419 76.9044 15.7419C77.9625 15.7419 78.8657 15.329 79.3819 14.7613L82.4786 16.5419C81.2141 18.2968 79.3044 19.2 76.8528 19.2C72.4399 19.2 69.7044 16.2323 69.7044 12.3871C69.7044 8.54194 72.4915 5.57419 76.5689 5.57419C80.3367 5.57419 83.1238 8.49032 83.1238 12.3871C83.1238 12.929 83.0722 13.4452 82.9689 13.9355H73.8077ZM73.7302 11.0452H79.2786C78.8657 9.54839 77.7044 9.00645 76.5431 9.00645C75.0722 9.00645 74.0915 9.72903 73.7302 11.0452Z" fill="#151618"/>
<path d="M89.1903 8.23226C89.7064 6.50323 91.4355 5.67742 93.0613 5.67742V10.0645C91.4613 9.80645 89.1903 10.4516 89.1903 13.0065V18.8387H85.3193V5.93548H89.1903V8.23226Z" fill="#151618"/>
<path d="M101.968 4.12903C100.522 4 99.5675 4.43871 99.5675 5.93548H101.968V9.65161H99.5675V18.8387H95.6966V9.65161H93.9675V5.93548H95.6966C95.6966 2.32258 97.6837 0.154838 101.968 0.412903V4.12903Z" fill="#151618"/>
<path d="M106.469 13.9355C106.959 15.2774 108.146 15.7419 109.566 15.7419C110.624 15.7419 111.527 15.329 112.043 14.7613L115.14 16.5419C113.875 18.2968 111.966 19.2 109.514 19.2C105.101 19.2 102.366 16.2323 102.366 12.3871C102.366 8.54194 105.153 5.57419 109.23 5.57419C112.998 5.57419 115.785 8.49032 115.785 12.3871C115.785 12.929 115.733 13.4452 115.63 13.9355H106.469ZM106.392 11.0452H111.94C111.527 9.54839 110.366 9.00645 109.204 9.00645C107.733 9.00645 106.753 9.72903 106.392 11.0452Z" fill="#151618"/>
<path d="M124.048 19.2C120.126 19.2 117.209 16.2323 117.209 12.3871C117.209 8.54194 120.126 5.57419 124.048 5.57419C126.551 5.57419 128.771 6.89032 129.88 8.87742L126.5 10.8387C126.061 9.93548 125.132 9.39355 123.997 9.39355C122.319 9.39355 121.08 10.6065 121.08 12.3871C121.08 14.1677 122.319 15.3806 123.997 15.3806C125.132 15.3806 126.087 14.8387 126.5 13.9355L129.88 15.871C128.771 17.8839 126.577 19.2 124.048 19.2Z" fill="#151618"/>
<path d="M139 9.65161H136.342V14.2194C136.342 15.329 137.296 15.4323 139 15.329V18.8387C133.942 19.3548 132.471 17.8323 132.471 14.2194V9.65161H130.406V5.93548H132.471V3.48387L136.342 2.32258V5.93548H139V9.65161Z" fill="#151618"/>
</svg>
