<svg width="48" height="48" viewBox="0 0 48 48" fill="none" xmlns="http://www.w3.org/2000/svg">
<rect x="2" y="2" width="44" height="44" stroke="white" stroke-width="4"/>
<path d="M12 33.8075C12 34.1199 12.0558 34.41 12.1674 34.6778C12.2789 34.9456 12.4351 35.1799 12.636 35.3808C12.8257 35.5704 13.0544 35.7211 13.3222 35.8326C13.59 35.9442 13.8801 36 14.1925 36H29.8912C30.2929 36 30.728 35.9554 31.1967 35.8661C31.6541 35.7657 32.1116 35.6151 32.569 35.4142C33.0153 35.2134 33.4449 34.9568 33.8577 34.6444C34.2706 34.3208 34.6388 33.9358 34.9623 33.4895C35.2748 33.0321 35.5258 32.5077 35.7155 31.9163C35.9052 31.3138 36 30.6388 36 29.8912V18.1088C36 17.7071 35.9554 17.2775 35.8661 16.8201C35.7657 16.3515 35.6151 15.894 35.4142 15.4477C35.2134 14.9902 34.9512 14.5551 34.6276 14.1423C34.304 13.7294 33.9191 13.3668 33.4728 13.0544C33.0153 12.7308 32.4909 12.4742 31.8996 12.2845C31.3082 12.0948 30.6388 12 29.8912 12H12.2008V16.3515H29.8912C30.4603 16.3515 30.8954 16.5021 31.1967 16.8033C31.4979 17.1046 31.6485 17.5509 31.6485 18.1423V29.8912C31.6485 30.4491 31.4979 30.8842 31.1967 31.1967C30.8842 31.4979 30.4491 31.6485 29.8912 31.6485H16.3515V26.1925H27.9331V21.8075H14.1925C13.8801 21.8075 13.59 21.8689 13.3222 21.9916C13.0544 22.1032 12.8257 22.2594 12.636 22.4603C12.4351 22.6611 12.2789 22.8954 12.1674 23.1632C12.0558 23.4198 12 23.6987 12 24V33.8075Z" fill="white"/>
</svg>
