<svg width="36" height="24" viewBox="0 0 36 24" fill="none" xmlns="http://www.w3.org/2000/svg">
<path d="M20.828 8.30535L31.6331 23.1757C32.0094 23.6935 32.6109 24 33.251 24H33.679C34.7836 24 35.679 23.1046 35.679 22V2.1906C35.679 0.980766 34.6983 0 33.4884 0V0C32.2786 0 31.2978 0.980765 31.2978 2.1906V15.3971L20.4613 0.807459C20.084 0.299465 19.4885 0 18.8557 0H17.1442C16.5114 0 15.9159 0.299465 15.5386 0.807459L4.70213 15.3971V2.1906C4.70213 0.980766 3.72136 0 2.51153 0V0C1.30169 0 0.320923 0.980767 0.320923 2.1906V22C0.320923 23.1046 1.21635 24 2.32092 24H2.74891C3.38909 24 3.99058 23.6935 4.36689 23.1757L15.1719 8.30535V21.172C15.1719 22.7338 16.4381 24 18 24V24C19.5619 24 20.828 22.7338 20.828 21.172V8.30535Z" fill="#151618"/>
</svg>
