<svg width="208" height="20" viewBox="0 0 208 20" fill="none" xmlns="http://www.w3.org/2000/svg">
<path fill-rule="evenodd" clip-rule="evenodd" d="M92.0608 15.0051C92.866 15.4964 93.7667 15.7421 94.7629 15.7421C95.8001 15.7421 96.7281 15.4759 97.547 14.9437C98.2571 14.4703 98.803 13.8686 99.1846 13.1386V15.4964H100.106V0H99.1846V7.08694C98.803 6.35851 98.2571 5.76351 97.547 5.30194C96.7281 4.75606 95.8001 4.48311 94.7629 4.48311C93.7667 4.48311 92.866 4.72876 92.0608 5.22006C91.2556 5.71136 90.621 6.3869 90.157 7.24667C89.693 8.0928 89.461 9.04811 89.461 10.1126C89.461 11.1771 89.693 12.1324 90.157 12.9785C90.621 13.8246 91.2556 14.5002 92.0608 15.0051ZM96.9942 14.2068C96.3392 14.6162 95.5954 14.8209 94.7629 14.8209C93.9305 14.8209 93.1867 14.6162 92.5316 14.2068C91.8902 13.7973 91.3784 13.2378 90.9963 12.5281C90.6278 11.8185 90.4436 11.0133 90.4436 10.1126C90.4436 9.21187 90.6278 8.40669 90.9963 7.69703C91.3784 6.98738 91.8902 6.42784 92.5316 6.01842C93.1867 5.60901 93.9305 5.4043 94.7629 5.4043C95.5954 5.4043 96.3392 5.60901 96.9942 6.01842C97.6493 6.42784 98.1679 6.98738 98.55 7.69703C98.9322 8.39304 99.1232 9.19823 99.1232 10.1126C99.1232 11.0133 98.9322 11.8185 98.55 12.5281C98.1679 13.2378 97.6493 13.7973 96.9942 14.2068ZM34.2963 15.4964V4.72876H35.2175V6.30122C35.4595 5.84859 35.8075 5.46773 36.2615 5.15865C36.9165 4.70829 37.674 4.48311 38.5337 4.48311C39.257 4.48311 39.9257 4.64688 40.5399 4.97441C41.154 5.30195 41.6453 5.76595 42.0138 6.36643C42.3959 6.95326 42.587 7.64244 42.587 8.43398V15.4964H41.6658V8.53634C41.6658 7.88127 41.5225 7.32173 41.2359 6.85773C40.9493 6.38008 40.5603 6.0116 40.069 5.7523C39.5914 5.49301 39.0523 5.36336 38.4518 5.36336C37.7695 5.36336 37.1827 5.52712 36.6914 5.85466C36.2137 6.16854 35.8452 6.59843 35.5859 7.14432C35.3403 7.67656 35.2175 8.27704 35.2175 8.94575V15.4964H34.2963ZM50.9454 15.7421C49.9219 15.7421 49.0007 15.4964 48.1819 15.0051C47.363 14.5138 46.7148 13.8451 46.2372 12.999C45.7595 12.1392 45.5207 11.1771 45.5207 10.1126C45.5207 9.03446 45.7595 8.07233 46.2372 7.2262C46.7148 6.38008 47.363 5.71136 48.1819 5.22006C49.0007 4.72876 49.9219 4.48311 50.9454 4.48311C51.9826 4.48311 52.9038 4.72876 53.709 5.22006C54.5278 5.71136 55.1761 6.38008 55.6537 7.2262C56.1314 8.07233 56.3702 9.03446 56.3702 10.1126C56.3702 11.1771 56.1314 12.1392 55.6537 12.999C55.1761 13.8451 54.5278 14.5138 53.709 15.0051C52.9038 15.4964 51.9826 15.7421 50.9454 15.7421ZM50.9454 14.8618C51.7779 14.8618 52.5285 14.6571 53.1972 14.2477C53.866 13.8246 54.3982 13.2515 54.794 12.5281C55.1897 11.8048 55.3876 10.9997 55.3876 10.1126C55.3876 9.21187 55.1897 8.40669 54.794 7.69703C54.4118 6.97373 53.8864 6.40737 53.2177 5.99795C52.549 5.57489 51.7916 5.36336 50.9454 5.36336C50.113 5.36336 49.3555 5.57489 48.6732 5.99795C48.0045 6.40737 47.4722 6.97373 47.0765 7.69703C46.6943 8.40669 46.5033 9.21187 46.5033 10.1126C46.5033 10.9997 46.7012 11.8048 47.0969 12.5281C47.4927 13.2515 48.0249 13.8246 48.6937 14.2477C49.3624 14.6571 50.113 14.8618 50.9454 14.8618ZM59.525 4.72876V15.4964H60.4461V8.94575C60.4461 8.27704 60.569 7.67656 60.8146 7.14432C61.0739 6.59843 61.4356 6.16854 61.8996 5.85466C62.3772 5.52712 62.9368 5.36336 63.5782 5.36336C64.1377 5.36336 64.6495 5.49301 65.1135 5.7523C65.5911 6.0116 65.9733 6.38008 66.2599 6.85773C66.5465 7.32173 66.6898 7.88127 66.6898 8.53634V15.4964H67.6109V8.94575C67.6109 8.27704 67.7338 7.67656 67.9794 7.14432C68.2387 6.59843 68.6004 6.16854 69.0644 5.85466C69.542 5.52712 70.1016 5.36336 70.743 5.36336C71.3025 5.36336 71.8143 5.49301 72.2783 5.7523C72.7559 6.0116 73.1381 6.38008 73.4247 6.85773C73.7112 7.32173 73.8545 7.88127 73.8545 8.53634V15.4964H74.7757V8.43398C74.7757 7.64244 74.5915 6.95326 74.223 6.36643C73.8545 5.76595 73.3701 5.30195 72.7696 4.97441C72.1691 4.64688 71.5209 4.48311 70.8249 4.48311C69.9378 4.48311 69.1462 4.74241 68.4502 5.261C67.8957 5.6633 67.5015 6.1652 67.2675 6.76674C66.988 6.14367 66.5634 5.63493 65.9937 5.24053C65.2841 4.73558 64.5062 4.48311 63.6601 4.48311C62.8685 4.48311 62.1589 4.68782 61.5311 5.09724C61.0543 5.41513 60.6926 5.81529 60.4461 6.29774V4.72876H59.525ZM81.2068 15.7421C80.5517 15.7421 79.958 15.6192 79.4258 15.3736C78.9072 15.1143 78.491 14.7595 78.1771 14.3091C77.8632 13.8451 77.7063 13.3129 77.7063 12.7124C77.7063 12.2211 77.8154 11.7503 78.0338 11.2999C78.2658 10.8359 78.6343 10.4333 79.1392 10.0921C79.6578 9.75094 80.347 9.51211 81.2068 9.37564L85.3828 8.67331V8.02456C85.3828 7.21938 85.1031 6.57796 84.5435 6.10031C83.9976 5.60901 83.2675 5.36336 82.3531 5.36336C81.6571 5.36336 81.0157 5.53395 80.4289 5.87513C79.842 6.21631 79.3849 6.66667 79.0573 7.2262L78.2385 6.79632C78.4432 6.3869 78.7434 6.0116 79.1392 5.67042C79.5486 5.31559 80.0263 5.029 80.5722 4.81065C81.1181 4.59229 81.7117 4.48311 82.3531 4.48311C83.131 4.48311 83.8134 4.63323 84.4002 4.93347C85.0007 5.23371 85.4647 5.64995 85.7922 6.18219C86.1334 6.71443 86.304 7.32856 86.304 8.02456V15.4964H85.3828V13.331C85.2023 13.7113 84.9362 14.0714 84.5844 14.4115C84.175 14.8072 83.6837 15.1279 83.1105 15.3736C82.5374 15.6192 81.9028 15.7421 81.2068 15.7421ZM85.3828 10.6244V9.55279L81.5138 10.1945C80.4493 10.3719 79.7056 10.6858 79.2825 11.1361C78.8594 11.5865 78.6479 12.0983 78.6479 12.6714C78.6479 13.3538 78.9004 13.8929 79.4053 14.2886C79.9103 14.6844 80.5381 14.8823 81.2887 14.8823C82.1211 14.8823 82.8376 14.6844 83.4381 14.2886C84.0522 13.8929 84.5299 13.3743 84.871 12.7329C85.2122 12.0778 85.3828 11.375 85.3828 10.6244ZM103.03 15.4964V4.31935H105.896V5.67889C106.154 5.19088 106.516 4.81958 106.98 4.56499C107.567 4.23746 108.25 4.0737 109.028 4.0737C109.874 4.0737 110.611 4.25111 111.238 4.60594C111.88 4.96076 112.378 5.45889 112.733 6.10031C113.088 6.72808 113.265 7.46503 113.265 8.31116V15.4964H110.194V8.96622C110.194 8.52951 110.106 8.15421 109.928 7.84033C109.765 7.52644 109.526 7.28079 109.212 7.10338C108.912 6.92596 108.557 6.83726 108.147 6.83726C107.752 6.83726 107.397 6.92596 107.083 7.10338C106.769 7.28079 106.523 7.52644 106.346 7.84033C106.182 8.15421 106.1 8.52951 106.1 8.96622V15.4964H103.03ZM116.656 15.3531C117.243 15.6124 117.939 15.7421 118.744 15.7421C119.344 15.7421 119.89 15.6602 120.381 15.4964C120.873 15.3463 121.316 15.1143 121.712 14.8004C121.846 14.6899 121.975 14.5701 122.101 14.4409V15.4964H124.967V8.12692C124.967 7.32173 124.762 6.6189 124.353 6.01842C123.957 5.4043 123.397 4.92665 122.674 4.58547C121.951 4.24429 121.118 4.0737 120.177 4.0737C119.385 4.0737 118.655 4.19652 117.986 4.44217C117.318 4.68782 116.744 5.03582 116.267 5.48618C115.789 5.93654 115.441 6.47561 115.223 7.10338L117.679 8.27022C117.87 7.77892 118.171 7.38315 118.58 7.08291C119.003 6.78267 119.487 6.63255 120.033 6.63255C120.607 6.63255 121.057 6.77584 121.384 7.06244C121.726 7.34903 121.896 7.70386 121.896 8.12692V8.42552L118.805 8.92528C117.918 9.06175 117.174 9.29376 116.574 9.62129C115.987 9.94882 115.55 10.3582 115.264 10.8495C114.977 11.3272 114.834 11.8799 114.834 12.5077C114.834 13.1764 114.991 13.7564 115.305 14.2477C115.618 14.7253 116.069 15.0938 116.656 15.3531ZM121.896 10.6828L119.358 11.1361C118.921 11.218 118.587 11.3613 118.355 11.566C118.123 11.7571 118.007 12.0368 118.007 12.4053C118.007 12.7465 118.136 13.0126 118.396 13.2037C118.655 13.3947 118.976 13.4903 119.358 13.4903C119.863 13.4903 120.306 13.3811 120.688 13.1627C121.071 12.9444 121.364 12.651 121.569 12.2825C121.787 11.9004 121.896 11.4841 121.896 11.0338V10.6828ZM130.519 15.4964L126.118 4.31935H129.434L131.85 11.0148L134.266 4.31935H137.582L133.181 15.4964H130.519ZM138.934 4.31935V15.4964H142.004V4.31935H138.934ZM138.934 0.245649V3.31627H142.004V0.245649H138.934ZM149.737 20C148.878 20 148.079 19.8567 147.342 19.5701C146.605 19.2835 145.971 18.8809 145.438 18.3623C144.92 17.8574 144.545 17.2569 144.313 16.5609L147.158 15.5578C147.308 16.0764 147.615 16.4858 148.079 16.7861C148.543 17.0863 149.096 17.2364 149.737 17.2364C150.242 17.2364 150.679 17.1409 151.047 16.9498C151.416 16.7724 151.696 16.5063 151.887 16.1515C152.091 15.7967 152.194 15.3804 152.194 14.9028V13.8446C151.932 14.1069 151.639 14.3232 151.314 14.4933C150.713 14.7936 150.01 14.9437 149.205 14.9437C148.168 14.9437 147.24 14.7117 146.421 14.2477C145.602 13.77 144.961 13.1218 144.497 12.303C144.033 11.4705 143.801 10.5288 143.801 9.47799C143.801 8.42716 144.033 7.49915 144.497 6.69396C144.961 5.87513 145.595 5.23371 146.401 4.7697C147.206 4.3057 148.12 4.0737 149.144 4.0737C149.949 4.0737 150.652 4.23746 151.252 4.56499C151.679 4.78818 152.061 5.09762 152.399 5.49331V4.31935H155.264V14.9028C155.264 15.8854 155.026 16.7588 154.548 17.523C154.07 18.3009 153.415 18.9082 152.583 19.3449C151.764 19.7816 150.815 20 149.737 20ZM149.635 12.1597C150.154 12.1597 150.604 12.0505 150.986 11.8321C151.368 11.6138 151.662 11.3067 151.866 10.911C152.085 10.5152 152.194 10.0512 152.194 9.51894C152.194 8.98669 152.085 8.52269 151.866 8.12692C151.648 7.7175 151.348 7.40362 150.966 7.18526C150.583 6.95326 150.14 6.83726 149.635 6.83726C149.116 6.83726 148.652 6.95326 148.243 7.18526C147.847 7.40362 147.533 7.7175 147.301 8.12692C147.083 8.52269 146.974 8.98669 146.974 9.51894C146.974 10.0375 147.083 10.4947 147.301 10.8905C147.533 11.2863 147.847 11.6001 148.243 11.8321C148.652 12.0505 149.116 12.1597 149.635 12.1597ZM158.897 15.3531C159.484 15.6124 160.18 15.7421 160.985 15.7421C161.585 15.7421 162.131 15.6602 162.622 15.4964C163.114 15.3463 163.557 15.1143 163.953 14.8004C164.087 14.6899 164.216 14.5701 164.342 14.4409V15.4964H167.208V8.12692C167.208 7.32173 167.003 6.6189 166.594 6.01842C166.198 5.4043 165.638 4.92665 164.915 4.58547C164.192 4.24429 163.359 4.0737 162.418 4.0737C161.626 4.0737 160.896 4.19652 160.227 4.44217C159.559 4.68782 158.985 5.03582 158.508 5.48618C158.03 5.93654 157.682 6.47561 157.464 7.10338L159.92 8.27022C160.111 7.77892 160.412 7.38315 160.821 7.08291C161.244 6.78267 161.729 6.63255 162.274 6.63255C162.848 6.63255 163.298 6.77584 163.626 7.06244C163.967 7.34903 164.137 7.70386 164.137 8.12692V8.42552L161.046 8.92528C160.159 9.06175 159.415 9.29376 158.815 9.62129C158.228 9.94882 157.791 10.3582 157.505 10.8495C157.218 11.3272 157.075 11.8799 157.075 12.5077C157.075 13.1764 157.232 13.7564 157.546 14.2477C157.86 14.7253 158.31 15.0938 158.897 15.3531ZM164.137 10.6828L161.599 11.1361C161.162 11.218 160.828 11.3613 160.596 11.566C160.364 11.7571 160.248 12.0368 160.248 12.4053C160.248 12.7465 160.377 13.0126 160.637 13.2037C160.896 13.3947 161.217 13.4903 161.599 13.4903C162.104 13.4903 162.547 13.3811 162.93 13.1627C163.312 12.9444 163.605 12.651 163.81 12.2825C164.028 11.9004 164.137 11.4841 164.137 11.0338V10.6828ZM174.644 15.6192C173.293 15.6192 172.242 15.2576 171.491 14.5343C170.754 13.7973 170.386 12.7738 170.386 11.4637V6.98055H168.503V4.31935H168.605C169.178 4.31935 169.615 4.17605 169.915 3.88946C170.229 3.60287 170.386 3.17298 170.386 2.59979V1.78096H173.456V4.31935H176.077V6.98055H173.456V11.259C173.456 11.6411 173.525 11.9618 173.661 12.2211C173.798 12.4667 174.009 12.651 174.296 12.7738C174.582 12.8966 174.937 12.958 175.36 12.958C175.456 12.958 175.565 12.9512 175.688 12.9376C175.811 12.9239 175.94 12.9103 176.077 12.8966V15.4964C175.872 15.5237 175.64 15.551 175.381 15.5783C175.121 15.6056 174.876 15.6192 174.644 15.6192ZM180.394 14.9846C181.308 15.4896 182.318 15.7421 183.424 15.7421C184.529 15.7421 185.532 15.4896 186.433 14.9846C187.334 14.4797 188.05 13.7905 188.582 12.9171C189.128 12.03 189.401 11.027 189.401 9.90788C189.401 8.77516 189.128 7.77209 188.582 6.89867C188.05 6.02525 187.334 5.33606 186.433 4.83112C185.532 4.32617 184.529 4.0737 183.424 4.0737C182.318 4.0737 181.308 4.32617 180.394 4.83112C179.493 5.33606 178.77 6.02525 178.224 6.89867C177.692 7.77209 177.426 8.77516 177.426 9.90788C177.426 11.027 177.692 12.03 178.224 12.9171C178.77 13.7905 179.493 14.4797 180.394 14.9846ZM184.877 12.5896C184.468 12.8489 183.983 12.9785 183.424 12.9785C182.864 12.9785 182.373 12.8489 181.95 12.5896C181.527 12.3303 181.192 11.9686 180.947 11.5046C180.715 11.0406 180.599 10.5084 180.599 9.90788C180.599 9.3074 180.715 8.78199 180.947 8.33163C181.192 7.86762 181.527 7.50597 181.95 7.24667C182.373 6.97373 182.864 6.83726 183.424 6.83726C183.983 6.83726 184.468 6.97373 184.877 7.24667C185.3 7.50597 185.628 7.86762 185.86 8.33163C186.105 8.78199 186.228 9.3074 186.228 9.90788C186.228 10.5084 186.105 11.0406 185.86 11.5046C185.628 11.9686 185.3 12.3303 184.877 12.5896ZM191.21 15.4964V4.31935H194.076V5.98536C194.32 5.38266 194.654 4.95697 195.079 4.70829C195.652 4.36711 196.328 4.19652 197.106 4.19652H197.761V6.85773H196.799C196.048 6.85773 195.441 7.08973 194.977 7.55374C194.513 8.0041 194.281 8.64551 194.281 9.47799V15.4964H191.21ZM200.273 14.8823C201.188 15.4555 202.259 15.7421 203.487 15.7421C204.361 15.7421 205.118 15.5988 205.76 15.3122C206.401 15.0119 206.899 14.6025 207.254 14.0839C207.622 13.5653 207.807 12.958 207.807 12.262C207.807 11.4568 207.561 10.7813 207.07 10.2354C206.578 9.67588 205.869 9.25964 204.941 8.98669L203.16 8.45445C202.887 8.37257 202.655 8.28386 202.464 8.18833C202.286 8.0928 202.157 7.98362 202.075 7.8608C201.993 7.73797 201.952 7.6015 201.952 7.45138C201.952 7.16479 202.061 6.93961 202.28 6.77584C202.512 6.61208 202.825 6.53019 203.221 6.53019C203.767 6.53019 204.252 6.67349 204.675 6.96008C205.111 7.23303 205.412 7.6015 205.575 8.06551L207.848 7.00102C207.506 6.07301 206.92 5.35653 206.087 4.85159C205.268 4.33299 204.313 4.0737 203.221 4.0737C202.389 4.0737 201.652 4.22381 201.01 4.52405C200.369 4.81064 199.871 5.21324 199.516 5.73183C199.161 6.25043 198.984 6.85773 198.984 7.55374C198.984 8.34527 199.229 9.03446 199.721 9.62129C200.212 10.1945 200.915 10.6107 201.829 10.87L203.733 11.4023C203.979 11.4705 204.183 11.5524 204.347 11.6479C204.511 11.7434 204.634 11.8526 204.716 11.9754C204.797 12.0846 204.838 12.2211 204.838 12.3849C204.838 12.6987 204.722 12.9444 204.49 13.1218C204.258 13.2992 203.924 13.3879 203.487 13.3879C202.887 13.3879 202.341 13.2173 201.85 12.8762C201.358 12.535 200.969 12.0641 200.683 11.4637L198.431 12.5281C198.759 13.5107 199.373 14.2955 200.273 14.8823ZM19.8433 16.2572L13.0312 6.88216V15.0582C13.0312 16.0507 12.2266 16.8553 11.2341 16.8553C10.2416 16.8553 9.43705 16.0507 9.43705 15.0582V6.88216L2.62496 16.2572C2.35194 16.633 1.91554 16.8553 1.45107 16.8553C0.649665 16.8553 0 16.2056 0 15.4042V2.99655C0 2.22776 0.623227 1.60454 1.39202 1.60454C2.16081 1.60454 2.78403 2.22777 2.78403 2.99656V11.3886L9.45144 2.412C9.82875 1.904 10.4242 1.60454 11.057 1.60454H11.4113C12.044 1.60454 12.6395 1.904 13.0168 2.412L19.6842 11.3886V2.99656C19.6842 2.22777 20.3075 1.60454 21.0762 1.60454C21.845 1.60454 22.4683 2.22776 22.4683 2.99655V15.4042C22.4683 16.2056 21.8186 16.8553 21.0172 16.8553C20.5527 16.8553 20.1163 16.633 19.8433 16.2572Z" fill="white"/>
</svg>
