<svg width="139" height="25" viewBox="0 0 139 25" fill="none" xmlns="http://www.w3.org/2000/svg">
<path d="M6.83871 6.15161C10.529 6.15161 13.5226 9.06774 13.5226 12.8871C13.5226 16.7065 10.529 19.6226 6.83871 19.6226C4.33548 19.6226 2.34839 18.3323 1.29032 16.3452V24.5H0V6.43548H1.29032V9.42903C2.34839 7.44194 4.33548 6.15161 6.83871 6.15161ZM6.76129 18.3839C9.83226 18.3839 12.2323 15.9581 12.2323 12.8871C12.2323 9.81613 9.83226 7.39032 6.76129 7.39032C3.69032 7.39032 1.29032 9.81613 1.29032 12.8871C1.29032 15.9581 3.69032 18.3839 6.76129 18.3839Z" fill="#E8E8E8"/>
<path d="M16.6331 19.3387V6.43548H17.9234V19.3387H16.6331Z" fill="#E8E8E8"/>
<path d="M32.3776 19.3387H30.8034L26.4421 13.7129L22.0808 19.3387H20.5066L25.6679 12.7065L20.8163 6.43548H22.3905L26.4421 11.6742L30.5196 6.43548H32.0679L27.2421 12.6806L32.3776 19.3387Z" fill="#E8E8E8"/>
<path d="M39.9798 6.15161C43.9024 6.15161 46.354 9.40322 46.354 12.9387C46.354 13.1452 46.3282 13.3516 46.3282 13.5581H34.6379C34.9476 16.4742 37.1669 18.3839 40.1089 18.3839C42.225 18.3839 43.825 17.4032 44.5734 16.0355L45.7089 16.7065C44.6508 18.4613 42.6379 19.6226 40.0831 19.6226C36.1089 19.6226 33.296 16.7839 33.296 12.8871C33.296 9.09355 36.0314 6.15161 39.9798 6.15161ZM39.9798 7.39032C37.0379 7.39032 34.896 9.42903 34.6379 12.2935H45.0121C44.7282 9.14516 42.5089 7.39032 39.9798 7.39032Z" fill="#E8E8E8"/>
<path d="M49.37 19.3387V0.5H50.6603V19.3387H49.37Z" fill="#E8E8E8"/>
<path d="M61.9871 6.07419C65.3677 6.07419 68.1548 9.04194 68.1548 12.8871C68.1548 16.7323 65.3677 19.7 61.9871 19.7C60.2581 19.7 58.9935 19.1065 58.1419 18.1258V24.5H54.271V6.43548H58.1419V7.64839C58.9935 6.66774 60.2581 6.07419 61.9871 6.07419ZM61.2129 16.0355C62.9935 16.0355 64.2839 14.8226 64.2839 12.8871C64.2839 10.9516 62.9935 9.73871 61.2129 9.73871C59.4323 9.73871 58.1419 10.9516 58.1419 12.8871C58.1419 14.8226 59.4323 16.0355 61.2129 16.0355Z" fill="#E8E8E8"/>
<path d="M73.8076 14.4355C74.298 15.7774 75.4851 16.2419 76.9044 16.2419C77.9625 16.2419 78.8657 15.829 79.3818 15.2613L82.4786 17.0419C81.2141 18.7968 79.3044 19.7 76.8528 19.7C72.4399 19.7 69.7044 16.7323 69.7044 12.8871C69.7044 9.04194 72.4915 6.07419 76.5689 6.07419C80.3367 6.07419 83.1238 8.99032 83.1238 12.8871C83.1238 13.429 83.0722 13.9452 82.9689 14.4355H73.8076ZM73.7302 11.5452H79.2786C78.8657 10.0484 77.7044 9.50645 76.5431 9.50645C75.0722 9.50645 74.0915 10.229 73.7302 11.5452Z" fill="#E8E8E8"/>
<path d="M89.1903 8.73226C89.7064 7.00323 91.4355 6.17742 93.0613 6.17742V10.5645C91.4613 10.3065 89.1903 10.9516 89.1903 13.5065V19.3387H85.3193V6.43548H89.1903V8.73226Z" fill="#E8E8E8"/>
<path d="M101.968 4.62903C100.522 4.5 99.5675 4.93871 99.5675 6.43548H101.968V10.1516H99.5675V19.3387H95.6966V10.1516H93.9675V6.43548H95.6966C95.6966 2.82258 97.6837 0.654838 101.968 0.912903V4.62903Z" fill="#E8E8E8"/>
<path d="M106.469 14.4355C106.959 15.7774 108.146 16.2419 109.566 16.2419C110.624 16.2419 111.527 15.829 112.043 15.2613L115.14 17.0419C113.875 18.7968 111.966 19.7 109.514 19.7C105.101 19.7 102.366 16.7323 102.366 12.8871C102.366 9.04194 105.153 6.07419 109.23 6.07419C112.998 6.07419 115.785 8.99032 115.785 12.8871C115.785 13.429 115.733 13.9452 115.63 14.4355H106.469ZM106.392 11.5452H111.94C111.527 10.0484 110.366 9.50645 109.204 9.50645C107.733 9.50645 106.753 10.229 106.392 11.5452Z" fill="#E8E8E8"/>
<path d="M124.048 19.7C120.126 19.7 117.209 16.7323 117.209 12.8871C117.209 9.04194 120.126 6.07419 124.048 6.07419C126.551 6.07419 128.771 7.39032 129.88 9.37742L126.5 11.3387C126.061 10.4355 125.132 9.89355 123.997 9.89355C122.319 9.89355 121.08 11.1065 121.08 12.8871C121.08 14.6677 122.319 15.8806 123.997 15.8806C125.132 15.8806 126.087 15.3387 126.5 14.4355L129.88 16.371C128.771 18.3839 126.577 19.7 124.048 19.7Z" fill="#E8E8E8"/>
<path d="M139 10.1516H136.342V14.7194C136.342 15.829 137.296 15.9323 139 15.829V19.3387C133.942 19.8548 132.471 18.3323 132.471 14.7194V10.1516H130.406V6.43548H132.471V3.98387L136.342 2.82258V6.43548H139V10.1516Z" fill="#E8E8E8"/>
</svg>
