<svg width="46" height="32" viewBox="0 0 46 32" fill="none" xmlns="http://www.w3.org/2000/svg">
<path fill-rule="evenodd" clip-rule="evenodd" d="M20.7843 17.0562V16.0716V15.9284V14.9438C20.7843 14.5813 20.6903 14.2657 20.5024 13.9972C20.3144 13.7287 20.0794 13.5474 19.7975 13.4534L9.48587 10.4123C8.82797 10.2109 8.19021 10.0162 7.57259 9.82825C6.95497 9.65371 6.34406 9.48587 5.73986 9.32475C6.34406 9.21734 6.95497 9.10322 7.57259 8.98238C8.19021 8.86154 8.82797 8.72056 9.48587 8.55944L19.7572 6.00168C20.0526 5.90769 20.2943 5.71972 20.4822 5.43776C20.6702 5.16923 20.7642 4.83357 20.7642 4.43077V0L0 6.52531V10.795C0 11.4126 0.322236 11.8154 0.966711 12.0034L12.1645 15.4271C12.5941 15.5614 13.0238 15.6755 13.4534 15.7695C13.7859 15.8501 14.1147 15.927 14.4396 16C14.1147 16.073 13.7859 16.1499 13.4534 16.2305C13.0238 16.3245 12.5941 16.4386 12.1645 16.5729L0.966711 19.9966C0.322236 20.1846 0 20.5874 0 21.205V25.4747L20.7642 32V27.5692C20.7642 27.1664 20.6702 26.8308 20.4822 26.5622C20.2943 26.2803 20.0526 26.0923 19.7572 25.9983L9.48587 23.4406C8.82797 23.2794 8.19021 23.1385 7.57259 23.0176C6.95497 22.8968 6.34406 22.7827 5.73986 22.6752C6.34406 22.5141 6.95497 22.3463 7.57259 22.1717C8.19021 21.9838 8.82797 21.7891 9.48587 21.5877L19.7975 18.5466C20.0794 18.4526 20.3144 18.2713 20.5024 18.0028C20.6903 17.7343 20.7843 17.4187 20.7843 17.0562ZM24.2599 17.0562V16.0716V15.9284V14.9438C24.2599 14.5813 24.3538 14.2657 24.5418 13.9972C24.7298 13.7287 24.9648 13.5474 25.2467 13.4534L35.5583 10.4123C36.2162 10.2109 36.854 10.0162 37.4716 9.82825C38.0892 9.65371 38.7001 9.48587 39.3043 9.32475C38.7001 9.21734 38.0892 9.10322 37.4716 8.98238C36.854 8.86154 36.2162 8.72056 35.5583 8.55944L25.287 6.00168C24.9916 5.90769 24.7499 5.71972 24.562 5.43776C24.374 5.16923 24.28 4.83357 24.28 4.43077V0L45.0442 6.52531V10.795C45.0442 11.4126 44.722 11.8154 44.0775 12.0034L32.8797 15.4271C32.4501 15.5614 32.0204 15.6755 31.5908 15.7695C31.2582 15.8501 30.9295 15.927 30.6045 16C30.9295 16.073 31.2582 16.1499 31.5908 16.2305C32.0204 16.3245 32.4501 16.4386 32.8797 16.5729L44.0775 19.9966C44.722 20.1846 45.0442 20.5874 45.0442 21.205V25.4747L24.28 32V27.5692C24.28 27.1664 24.374 26.8308 24.562 26.5622C24.7499 26.2803 24.9916 26.0923 25.287 25.9983L35.5583 23.4406C36.2162 23.2794 36.854 23.1385 37.4716 23.0176C38.0892 22.8968 38.7001 22.7827 39.3043 22.6752C38.7001 22.5141 38.0892 22.3463 37.4716 22.1717C36.854 21.9838 36.2162 21.7891 35.5583 21.5877L25.2467 18.5466C24.9648 18.4526 24.7298 18.2713 24.5418 18.0028C24.3538 17.7343 24.2599 17.4187 24.2599 17.0562Z" fill="white"/>
</svg>
