<svg width="40" height="40" viewBox="0 0 40 40" fill="none" xmlns="http://www.w3.org/2000/svg">
<path fill-rule="evenodd" clip-rule="evenodd" d="M20 36C28.8366 36 36 28.8366 36 20C36 11.1634 28.8366 4 20 4C11.1634 4 4 11.1634 4 20C4 28.8366 11.1634 36 20 36ZM20 40C31.0457 40 40 31.0457 40 20C40 8.9543 31.0457 0 20 0C8.9543 0 0 8.9543 0 20C0 31.0457 8.9543 40 20 40Z" fill="#262626"/>
<path fill-rule="evenodd" clip-rule="evenodd" d="M11 27C14.866 27 18 23.866 18 20C18 16.134 14.866 13 11 13C7.13401 13 4 16.134 4 20C4 23.866 7.13401 27 11 27ZM11 31C17.0751 31 22 26.0751 22 20C22 13.9249 17.0751 9 11 9C4.92487 9 0 13.9249 0 20C0 26.0751 4.92487 31 11 31Z" fill="#262626"/>
<path fill-rule="evenodd" clip-rule="evenodd" d="M29.0001 27C32.8661 27 36.0001 23.866 36.0001 20C36.0001 16.134 32.8661 13 29.0001 13C25.1341 13 22.0001 16.134 22.0001 20C22.0001 23.866 25.1341 27 29.0001 27ZM29.0001 31C35.0753 31 40.0001 26.0751 40.0001 20C40.0001 13.9249 35.0753 9 29.0001 9C22.925 9 18.0001 13.9249 18.0001 20C18.0001 26.0751 22.925 31 29.0001 31Z" fill="#262626"/>
</svg>
