<svg width="36" height="24" viewBox="0 0 36 24" fill="none" xmlns="http://www.w3.org/2000/svg">
<path d="M20.8279 8.30535L31.6329 23.1757C32.0092 23.6935 32.6107 24 33.2509 24H33.6789C34.7835 24 35.6789 23.1046 35.6789 22V2.1906C35.6789 0.980766 34.6981 0 33.4883 0C32.2785 0 31.2977 0.980764 31.2977 2.1906V15.3971L20.4612 0.807459C20.0839 0.299465 19.4884 0 18.8556 0H17.1441C16.5113 0 15.9158 0.299465 15.5385 0.807459L4.70201 15.3971V2.1906C4.70201 0.980766 3.72124 0 2.5114 0C1.30157 0 0.320801 0.980767 0.320801 2.1906V22C0.320801 23.1046 1.21623 24 2.3208 24H2.74879C3.38897 24 3.99046 23.6935 4.36677 23.1757L15.1718 8.30535V21.172C15.1718 22.7338 16.438 24 17.9998 24C19.5617 24 20.8279 22.7338 20.8279 21.172V8.30535Z" fill="#E76A10"/>
</svg>
