<svg width="48" height="48" viewBox="0 0 48 48" fill="none" xmlns="http://www.w3.org/2000/svg">
<rect width="48" height="48" rx="24" fill="#E54949"/>
<path fill-rule="evenodd" clip-rule="evenodd" d="M13.5 24C13.5 23.8011 13.579 23.6103 13.7197 23.4696C13.8603 23.329 14.0511 23.25 14.25 23.25H31.9395L27.219 18.531C27.0782 18.3901 26.9991 18.1991 26.9991 18C26.9991 17.8008 27.0782 17.6098 27.219 17.469C27.3598 17.3281 27.5508 17.249 27.75 17.249C27.9492 17.249 28.1402 17.3281 28.281 17.469L34.281 23.469C34.3508 23.5386 34.4063 23.6214 34.4441 23.7125C34.4819 23.8036 34.5013 23.9013 34.5013 24C34.5013 24.0986 34.4819 24.1963 34.4441 24.2874C34.4063 24.3785 34.3508 24.4613 34.281 24.531L28.281 30.531C28.1402 30.6718 27.9492 30.7509 27.75 30.7509C27.5508 30.7509 27.3598 30.6718 27.219 30.531C27.0782 30.3901 26.9991 30.1991 26.9991 30C26.9991 29.8008 27.0782 29.6098 27.219 29.469L31.9395 24.75H14.25C14.0511 24.75 13.8603 24.671 13.7197 24.5303C13.579 24.3896 13.5 24.1989 13.5 24Z" fill="white"/>
</svg>
