<svg width="32" height="32" viewBox="0 0 32 32" fill="none" xmlns="http://www.w3.org/2000/svg">
<g clip-path="url(#clip0_484_2863)">
<path d="M5.5 13H20.5C22.9816 13 25 10.9816 25 8.5C25 6.01844 22.9816 4 20.5 4H19C18.1708 4 17.5 4.67078 17.5 5.5C17.5 6.32922 18.1708 7 19 7H20.5C21.3278 7 22 7.67219 22 8.5C22 9.32781 21.3278 10 20.5 10H5.5C4.67078 10 4 10.6703 4 11.5C4 12.3297 4.67078 13 5.5 13ZM11.5 19H5.5C4.67078 19 4 19.6708 4 20.5C4 21.3292 4.67078 22 5.5 22H11.5C12.3278 22 13 22.6722 13 23.5C13 24.3278 12.3278 25 11.5 25H10C9.17078 25 8.5 25.6708 8.5 26.5C8.5 27.3292 9.17078 28 10 28H11.5C13.9816 28 16 25.9816 16 23.5C16 21.0184 13.9797 19 11.5 19ZM23.5 14.5H5.5C4.67078 14.5 4 15.1703 4 16C4 16.8297 4.67078 17.5 5.5 17.5H23.5C24.3278 17.5 25 18.1722 25 19C25 19.8278 24.3278 20.5 23.5 20.5H22C21.1708 20.5 20.5 21.1708 20.5 22C20.5 22.8292 21.1708 23.5 22 23.5H23.5C25.9816 23.5 28 21.4816 28 19C28 16.5184 25.9797 14.5 23.5 14.5Z" fill="white"/>
</g>
<defs>
<clipPath id="clip0_484_2863">
<rect width="24" height="24" fill="white" transform="translate(4 4)"/>
</clipPath>
</defs>
</svg>
