<svg width="18" height="17" viewBox="0 0 18 17" fill="none" xmlns="http://www.w3.org/2000/svg">
<path d="M17.8906 7.94063C16.1969 4.10938 12.8406 1.5 9 1.5C5.15937 1.5 1.80281 4.1125 0.108406 7.94063C0.0488438 8.10625 0 8.34375 0 8.5C0 8.65553 0.0488125 8.89375 0.108406 9.03219C1.80375 12.8906 5.15937 15.5 9 15.5C12.8406 15.5 16.1969 12.8881 17.8906 9.05937C17.95 8.89375 18 8.62812 18 8.5C18 8.34375 17.95 8.10625 17.8906 7.94063ZM9 14C5.89125 14 3.025 11.8906 1.5125 8.52812C3.03156 5.10625 5.89375 3 9 3C12.1088 3 14.975 5.10938 16.4875 8.47188C14.9406 11.8938 12.1063 14 9 14ZM9 4.5C6.79063 4.5 5 6.29063 5 8.5C5 10.7094 6.79156 12.5 9 12.5C11.2075 12.5 13 10.7088 13 8.50313C13 6.29375 11.2094 4.5 9 4.5ZM9 11C7.62156 11 6.5 9.87844 6.5 8.5C6.5 8.47662 6.50623 8.45497 6.5069 8.43175C6.66563 8.47187 6.82812 8.5 7 8.5C8.10469 8.5 9 7.60469 9 6.5C9 6.32875 8.97266 6.165 8.93175 6.00688C8.95625 6.00625 8.97813 6 9 6C10.3784 6 11.5 7.12156 11.5 8.50156C11.5 9.87812 10.3781 11 9 11Z" fill="#444546"/>
</svg>
