<svg width="32" height="32" viewBox="0 0 32 32" fill="none" xmlns="http://www.w3.org/2000/svg">
<g clip-path="url(#clip0_484_2855)">
<path d="M17.3734 5.03736C16.9984 3.68407 15.0531 3.62548 14.6313 5.03736C12.4375 12.4328 7.75 14.4438 7.75 19.6516C7.75 24.2688 11.4414 28 16 28C20.5586 28 24.25 24.2674 24.25 19.6516C24.25 14.4109 19.5766 12.4656 17.3734 5.03736ZM16 25C13.1055 25 10.75 22.6445 10.75 19.7922C10.75 19.3762 11.084 19.0422 11.5 19.0422C11.916 19.0422 12.25 19.3762 12.25 19.7922C12.25 21.8603 13.9319 23.5 16 23.5C16.416 23.5 16.75 23.834 16.75 24.2078C16.75 24.6672 16.4172 25 16 25Z" fill="white"/>
</g>
<defs>
<clipPath id="clip0_484_2855">
<rect width="18" height="24" fill="white" transform="translate(7 4)"/>
</clipPath>
</defs>
</svg>
