<svg width="32" height="32" viewBox="0 0 32 32" fill="none" xmlns="http://www.w3.org/2000/svg">
<g clip-path="url(#clip0_484_2858)">
<path d="M23.5 10C23.4707 10 23.4473 10.0117 23.4238 10.0117C23.4766 9.76562 23.5 9.5125 23.5 9.25C23.5 7.17578 21.8266 5.5 19.75 5.5C18.5959 5.5 17.582 6.02734 16.8906 6.84766C16.0187 5.16016 14.2797 4 12.25 4C9.34844 4 7 6.34984 7 9.25C7 9.58984 7.03516 9.91797 7.09961 10.2461C5.30078 10.8344 4 12.5078 4 14.5C4 16.9844 6.01562 19 8.5 19H23.5C25.9844 19 28 16.9844 28 14.5C28 12.0156 25.9844 10 23.5 10ZM21.25 25.75C21.25 26.9927 22.2573 28 23.5 28C24.7427 28 25.75 26.9927 25.75 25.75C25.75 24.5073 23.4995 21.2922 23.4995 21.2922C23.4995 21.2922 21.25 24.5078 21.25 25.75ZM6.25 25.75C6.25 26.9922 7.25734 28 8.5 28C9.74266 28 10.75 26.9927 10.75 25.75C10.75 24.5073 8.49953 21.2922 8.49953 21.2922C8.49953 21.2922 6.25 24.5078 6.25 25.75ZM13.75 25.75C13.75 26.9927 14.7573 28 16 28C17.2427 28 18.25 26.9927 18.25 25.75C18.25 24.5073 15.9995 21.2922 15.9995 21.2922C15.9995 21.2922 13.75 24.5078 13.75 25.75Z" fill="white"/>
</g>
<defs>
<clipPath id="clip0_484_2858">
<rect width="24" height="24" fill="white" transform="translate(4 4)"/>
</clipPath>
</defs>
</svg>
