<svg width="32" height="32" viewBox="0 0 32 32" fill="none" xmlns="http://www.w3.org/2000/svg">
<g clip-path="url(#clip0_4_12)">
<path d="M31.4126 4.41437L27.5845 0.58625C27.2126 0.210688 26.7001 0 26.1689 0H15.9439C13.7345 0 11.9439 1.79125 11.9439 4L11.9451 20C12.0001 22.2125 13.7939 24 16.0001 24H28.0001C30.2001 24 32.0001 22.2 32.0001 20V5.82812C32.0001 5.29813 31.7876 4.78937 31.4126 4.41437ZM29.0001 20C29.0001 20.5522 28.5524 21 28.0001 21H15.9439C15.3915 21 14.9439 20.5522 14.9439 20V4.00812C14.9439 3.45587 15.3916 3.00813 15.9439 3.00813H23.9439L24.0001 6C24.0001 7.10437 24.8958 8 26.0001 8H28.9439V20H29.0001ZM17.0001 28C17.0001 28.5522 16.5524 29 16.0001 29H3.94389C3.39151 29 2.94389 28.5522 2.94389 28L2.99889 12.0063C2.99889 11.454 3.44664 11.0063 3.99889 11.0063H10.0001V8H3.99951C1.79014 8 -0.000488281 9.79062 -0.000488281 12L0.000124219 28C0.000261719 30.2062 1.79139 32 4.00014 32H16.0001C18.2001 32 20.0001 30.2 20.0001 28V26H17.0564L17.0001 28Z" fill="#7F27C5"/>
</g>
<defs>
<clipPath id="clip0_4_12">
<rect width="32" height="32" fill="white"/>
</clipPath>
</defs>
</svg>
