<svg width="16" height="17" viewBox="0 0 16 17" fill="none" xmlns="http://www.w3.org/2000/svg">
<path fill-rule="evenodd" clip-rule="evenodd" d="M1 8.50001C1 8.3674 1.05268 8.24022 1.14645 8.14645C1.24021 8.05268 1.36739 8.00001 1.5 8.00001H13.293L10.146 4.85401C10.0521 4.76012 9.99937 4.63278 9.99937 4.50001C9.99937 4.36723 10.0521 4.23989 10.146 4.14601C10.2399 4.05212 10.3672 3.99937 10.5 3.99937C10.6328 3.99937 10.7601 4.05212 10.854 4.14601L14.854 8.14601C14.9006 8.19245 14.9375 8.24763 14.9627 8.30837C14.9879 8.36912 15.0009 8.43424 15.0009 8.50001C15.0009 8.56577 14.9879 8.63089 14.9627 8.69164C14.9375 8.75238 14.9006 8.80756 14.854 8.85401L10.854 12.854C10.7601 12.9479 10.6328 13.0006 10.5 13.0006C10.3672 13.0006 10.2399 12.9479 10.146 12.854C10.0521 12.7601 9.99937 12.6328 9.99937 12.5C9.99937 12.3672 10.0521 12.2399 10.146 12.146L13.293 9.00001H1.5C1.36739 9.00001 1.24021 8.94733 1.14645 8.85356C1.05268 8.75979 1 8.63261 1 8.50001Z" fill="#9E70EB"/>
</svg>
