<svg width="24" height="25" viewBox="0 0 24 25" fill="none" xmlns="http://www.w3.org/2000/svg">
<path d="M16.9998 9.67C16.8124 9.48375 16.559 9.37921 16.2948 9.37921C16.0306 9.37921 15.7772 9.48375 15.5898 9.67L11.9998 13.21L8.45981 9.67C8.27245 9.48375 8.019 9.37921 7.75481 9.37921C7.49063 9.37921 7.23717 9.48375 7.04981 9.67C6.95608 9.76297 6.88169 9.87357 6.83092 9.99543C6.78015 10.1173 6.75401 10.248 6.75401 10.38C6.75401 10.512 6.78015 10.6427 6.83092 10.7646C6.88169 10.8864 6.95608 10.997 7.04981 11.09L11.2898 15.33C11.3828 15.4237 11.4934 15.4981 11.6152 15.5489C11.7371 15.5997 11.8678 15.6258 11.9998 15.6258C12.1318 15.6258 12.2625 15.5997 12.3844 15.5489C12.5062 15.4981 12.6168 15.4237 12.7098 15.33L16.9998 11.09C17.0935 10.997 17.1679 10.8864 17.2187 10.7646C17.2695 10.6427 17.2956 10.512 17.2956 10.38C17.2956 10.248 17.2695 10.1173 17.2187 9.99543C17.1679 9.87357 17.0935 9.76297 16.9998 9.67Z" fill="#E8E8E8"/>
</svg>
