<svg width="33" height="32" viewBox="0 0 33 32" fill="none" xmlns="http://www.w3.org/2000/svg">
<g clip-path="url(#clip0_4_16)">
<path d="M15 7.5C15 6.66875 15.6687 6 16.5 6C17.3312 6 18 6.66875 18 7.5V15.2L23.3312 18.75C24.0187 19.2125 24.2063 20.1437 23.6938 20.8312C23.2875 21.5187 22.3563 21.7063 21.6688 21.1938L15.6687 17.1938C15.25 16.9688 15 16.5 15 15.9438V7.5ZM16.5 0C25.3375 0 32.5 7.1625 32.5 16C32.5 24.8375 25.3375 32 16.5 32C7.6625 32 0.5 24.8375 0.5 16C0.5 7.1625 7.6625 0 16.5 0ZM3.5 16C3.5 23.1812 9.31875 29 16.5 29C23.6812 29 29.5 23.1812 29.5 16C29.5 8.81875 23.6812 3 16.5 3C9.31875 3 3.5 8.81875 3.5 16Z" fill="#7F27C5"/>
</g>
<defs>
<clipPath id="clip0_4_16">
<rect width="32" height="32" fill="white" transform="translate(0.5)"/>
</clipPath>
</defs>
</svg>
